# xmcd
#
# Track frame offsets:
# 150
# 17750
# 32257
# 52314
# 63765
# 81936
# 98520
# 114908
# 137712
# 154378
# 164365
# 172769
# 181020
# 200893
# 218946
# 234084
# 249010
# 268070
# 291834
# 306100
# 321816
#
# Disc length: 4566 seconds
#
# Revision: 0
# Processed by: cddbd v1.5.2PL0 Copyright (c) Steve Scherf et al.
# Submitted via: Audion 3.0.2 (http://www.panic.com/audion/)
#
DISCID=1611d415
DTITLE=tracy chapman - let it rain
DYEAR=1900
DGENRE=
TTITLE0=almost
TTITLE1=another sun
TTITLE2=broken
TTITLE3=goodbye
TTITLE4=happy
TTITLE5=hard wired
TTITLE6=i am yours
TTITLE7=in the dark
TTITLE8=let it rain
TTITLE9=say hallelujah
TTITLE10=you're the one
TTITLE11=over in love
TTITLE12=bang bang bang
TTITLE13=i used to be a sailor
TTITLE14=less than strangers
TTITLE15=sorry
TTITLE16=speak the word
TTITLE17=subcity
TTITLE18=the only one
TTITLE19=three littel birds
TTITLE20=wedding song
EXTD=
EXTT0=
EXTT1=
EXTT2=
EXTT3=
EXTT4=
EXTT5=
EXTT6=
EXTT7=
EXTT8=
EXTT9=
EXTT10=
EXTT11=
EXTT12=
EXTT13=
EXTT14=
EXTT15=
EXTT16=
EXTT17=
EXTT18=
EXTT19=
EXTT20=
PLAYORDER=
